<svg xmlns="http://www.w3.org/2000/svg" fill="none" viewBox="0 0 24 24" class="Button_icon__4a1qk"><path fill="#fff" fill-rule="evenodd" d="M9.232 4.31a1 1 0 0 1 1.446 0c.4.413.4 1.083 0 1.496L7.188 9.42h9.625l-3.491-3.613c-.4-.413-.4-1.083 0-1.496a1 1 0 0 1 1.446 0l4.338 4.49c.168.173.265.392.292.619h1.58c.644 0 1.128.61 1.002 1.265L19.32 19.15c-.095.495-.515.851-1.002.851H5.68c-.487 0-.907-.356-1.002-.85L2.02 10.684c-.126-.655.358-1.266 1.003-1.266h1.58c.026-.227.123-.446.291-.62zm-2.344 7.754a.52.52 0 0 1 .511-.529.52.52 0 0 1 .511.53v5.29a.52.52 0 0 1-.511.529.52.52 0 0 1-.511-.53zm3.067 0a.52.52 0 0 1 .511-.529.52.52 0 0 1 .511.53v5.29a.52.52 0 0 1-.51.529.52.52 0 0 1-.512-.53zm3.579-.529a.52.52 0 0 0-.512.53v5.29c0 .292.23.529.512.529a.52.52 0 0 0 .51-.53v-5.29a.52.52 0 0 0-.51-.529m2.556.53a.52.52 0 0 1 .51-.53.52.52 0 0 1 .512.53v5.29a.52.52 0 0 1-.511.529.52.52 0 0 1-.511-.53z" clip-rule="evenodd"></path></svg>